<svg
    xmlns="http://www.w3.org/2000/svg"
    width={2415}
    height={650}
    fill="none"
    {...props}
  >
    <path fill="#FCFF6F" d="M0 0h903v650H0z" />
    <path fill="#D9D9D9" d="M960 103h447v547H960z" />
    <path fill="#FCFF6F" d="M960 0h447v650H960z" />
    <path fill="#D9D9D9" d="M1968 0h447v650h-447z" />
    <path fill="#FCFF6F" d="M1968 324h447v326h-447z" />
    <path fill="#D9D9D9" d="M1464 0h447v650h-447z" />
    <path fill="#FCFF6F" d="M1464 0h246v324h-246z" />
    <path
      fill="#000"
      d="M318.964 341h-12.375v-34.909h12.477c3.511 0 6.534.699 9.068 2.097 2.534 1.386 4.483 3.38 5.847 5.982 1.375 2.603 2.062 5.716 2.062 9.341 0 3.637-.687 6.762-2.062 9.375-1.364 2.614-3.324 4.62-5.881 6.017-2.545 1.398-5.591 2.097-9.136 2.097Zm-4.995-6.324h4.688c2.182 0 4.017-.386 5.506-1.159 1.5-.784 2.625-1.994 3.375-3.631.761-1.647 1.142-3.772 1.142-6.375 0-2.579-.381-4.687-1.142-6.323-.75-1.637-1.87-2.841-3.358-3.614-1.489-.773-3.324-1.159-5.506-1.159h-4.705v22.261Zm39.235 6.835c-2.648 0-4.938-.562-6.869-1.687-1.921-1.137-3.404-2.716-4.449-4.739-1.046-2.034-1.569-4.392-1.569-7.074 0-2.704.523-5.068 1.569-7.091 1.045-2.034 2.528-3.613 4.449-4.738 1.931-1.137 4.221-1.705 6.869-1.705 2.648 0 4.932.568 6.852 1.705 1.932 1.125 3.421 2.704 4.466 4.738 1.045 2.023 1.568 4.387 1.568 7.091 0 2.682-.523 5.04-1.568 7.074-1.045 2.023-2.534 3.602-4.466 4.739-1.92 1.125-4.204 1.687-6.852 1.687Zm.034-5.625c1.204 0 2.21-.341 3.017-1.022.807-.694 1.415-1.637 1.824-2.83.42-1.193.631-2.551.631-4.074 0-1.522-.211-2.88-.631-4.074-.409-1.193-1.017-2.136-1.824-2.829-.807-.693-1.813-1.04-3.017-1.04-1.216 0-2.239.347-3.068 1.04-.818.693-1.438 1.636-1.858 2.829-.409 1.194-.614 2.552-.614 4.074 0 1.523.205 2.881.614 4.074.42 1.193 1.04 2.136 1.858 2.83.829.681 1.852 1.022 3.068 1.022Zm34.364-6.034v-15.034h7.261V341h-6.972v-4.756h-.272a7.733 7.733 0 0 1-2.949 3.699c-1.364.932-3.029 1.398-4.995 1.398-1.75 0-3.289-.398-4.619-1.193-1.329-.796-2.369-1.926-3.119-3.392-.739-1.466-1.114-3.222-1.125-5.267v-16.671h7.261v15.375c.012 1.546.426 2.767 1.244 3.665.819.898 1.915 1.347 3.29 1.347.875 0 1.693-.199 2.455-.597.761-.409 1.375-1.011 1.841-1.807.477-.795.71-1.778.699-2.949ZM400.808 341v-34.909h7.261v13.125h.221c.319-.705.779-1.421 1.381-2.148.614-.738 1.409-1.352 2.387-1.841.988-.5 2.215-.75 3.681-.75 1.909 0 3.671.5 5.284 1.5 1.614.989 2.904 2.483 3.87 4.483.966 1.989 1.449 4.483 1.449 7.483 0 2.921-.472 5.387-1.415 7.398-.932 2-2.205 3.517-3.818 4.551-1.603 1.023-3.398 1.534-5.387 1.534-1.409 0-2.608-.233-3.596-.699-.978-.466-1.779-1.051-2.404-1.755-.625-.716-1.102-1.438-1.432-2.165h-.323V341h-7.159Zm7.107-13.091c0 1.557.216 2.915.648 4.074.432 1.159 1.057 2.062 1.875 2.71.818.637 1.813.955 2.983.955 1.182 0 2.182-.324 3-.972.818-.659 1.438-1.568 1.858-2.727.432-1.171.648-2.517.648-4.04 0-1.511-.21-2.841-.631-3.989-.42-1.147-1.04-2.045-1.858-2.693-.818-.647-1.824-.971-3.017-.971-1.182 0-2.182.312-3 .937-.807.625-1.426 1.512-1.858 2.659-.432 1.148-.648 2.5-.648 4.057Zm30.533-21.818V341h-7.261v-34.909h7.261Zm17.749 35.42c-2.693 0-5.012-.545-6.955-1.636-1.932-1.102-3.42-2.659-4.466-4.67-1.045-2.023-1.568-4.415-1.568-7.177 0-2.693.523-5.056 1.568-7.09 1.046-2.035 2.517-3.62 4.415-4.756 1.909-1.137 4.148-1.705 6.716-1.705 1.727 0 3.335.279 4.824.835 1.5.546 2.807 1.37 3.92 2.472 1.125 1.102 2 2.489 2.625 4.159.625 1.659.938 3.602.938 5.83v1.994h-22.108v-4.5h15.273c0-1.045-.228-1.972-.682-2.778a4.88 4.88 0 0 0-1.892-1.892c-.796-.466-1.722-.699-2.779-.699-1.102 0-2.079.255-2.932.767-.84.5-1.5 1.176-1.977 2.028-.477.841-.721 1.779-.733 2.813v4.278c0 1.296.239 2.415.716 3.358.489.943 1.176 1.67 2.063 2.182.886.511 1.937.767 3.153.767.807 0 1.546-.114 2.216-.341a4.6 4.6 0 0 0 1.722-1.023 4.443 4.443 0 0 0 1.09-1.67l6.716.443c-.341 1.614-1.039 3.023-2.096 4.227-1.046 1.193-2.398 2.125-4.057 2.796-1.648.659-3.551.988-5.71.988Zm28.001-.511v-34.909h13.773c2.648 0 4.903.506 6.767 1.517 1.864 1 3.284 2.392 4.261 4.176.989 1.773 1.483 3.818 1.483 6.136 0 2.319-.5 4.364-1.5 6.137-1 1.773-2.449 3.153-4.346 4.142-1.887.988-4.171 1.483-6.853 1.483h-8.778v-5.915h7.585c1.421 0 2.591-.244 3.512-.733.931-.5 1.625-1.187 2.079-2.062.466-.887.699-1.904.699-3.052 0-1.159-.233-2.17-.699-3.034-.454-.875-1.148-1.551-2.079-2.028-.932-.489-2.114-.733-3.546-.733h-4.977V341h-7.381Zm37.705.494c-1.671 0-3.159-.289-4.466-.869-1.307-.591-2.341-1.46-3.102-2.608-.75-1.159-1.125-2.602-1.125-4.329 0-1.455.267-2.677.801-3.665a6.492 6.492 0 0 1 2.181-2.387c.921-.602 1.966-1.056 3.137-1.363a23.88 23.88 0 0 1 3.716-.648 94.873 94.873 0 0 0 3.682-.443c.931-.148 1.608-.364 2.028-.648.42-.284.631-.704.631-1.261v-.103c0-1.079-.341-1.914-1.023-2.505-.671-.591-1.625-.887-2.864-.887-1.307 0-2.346.29-3.119.87-.773.568-1.284 1.284-1.534 2.147l-6.716-.545c.341-1.591 1.011-2.966 2.011-4.125 1-1.17 2.29-2.068 3.87-2.693 1.591-.637 3.431-.955 5.522-.955 1.455 0 2.847.171 4.177.512 1.34.341 2.528.869 3.562 1.585a7.716 7.716 0 0 1 2.472 2.761c.602 1.114.903 2.449.903 4.006V341h-6.886v-3.631h-.205a7.38 7.38 0 0 1-1.687 2.165c-.705.614-1.552 1.097-2.54 1.449-.989.341-2.131.511-3.426.511Zm2.079-5.011c1.068 0 2.012-.21 2.83-.631.818-.432 1.46-1.011 1.926-1.738.466-.728.699-1.552.699-2.472v-2.778c-.227.147-.54.284-.938.409-.386.113-.824.221-1.312.324-.489.09-.977.176-1.466.255-.489.068-.932.131-1.33.188-.852.125-1.596.324-2.233.596-.636.273-1.13.642-1.483 1.108-.352.455-.528 1.023-.528 1.705 0 .989.358 1.744 1.074 2.267.727.511 1.648.767 2.761.767Zm30.094 14.881c-2.352 0-4.369-.324-6.051-.972-1.671-.636-3-1.506-3.989-2.608-.988-1.102-1.63-2.341-1.926-3.716l6.716-.903c.205.523.528 1.011.972 1.466.443.454 1.028.818 1.755 1.091.739.284 1.637.426 2.693.426 1.58 0 2.881-.387 3.904-1.159 1.034-.762 1.551-2.04 1.551-3.836v-4.789h-.307c-.318.727-.795 1.414-1.432 2.062-.636.648-1.454 1.176-2.454 1.585-1 .409-2.193.614-3.58.614-1.966 0-3.755-.455-5.369-1.364-1.602-.92-2.881-2.324-3.835-4.21-.943-1.898-1.415-4.295-1.415-7.193 0-2.966.483-5.443 1.449-7.432.966-1.989 2.25-3.477 3.852-4.466a9.962 9.962 0 0 1 5.301-1.483c1.466 0 2.693.25 3.682.75.989.489 1.784 1.103 2.386 1.841.614.727 1.086 1.443 1.415 2.148h.273v-4.398h7.21v26.438c0 2.227-.545 4.091-1.636 5.591-1.091 1.5-2.603 2.625-4.534 3.375-1.921.761-4.131 1.142-6.631 1.142Zm.153-16.194c1.171 0 2.159-.289 2.966-.869.818-.591 1.443-1.432 1.875-2.523.443-1.102.665-2.42.665-3.954 0-1.534-.216-2.864-.648-3.989-.431-1.136-1.056-2.017-1.875-2.642-.818-.625-1.812-.937-2.983-.937-1.193 0-2.198.324-3.017.971-.818.637-1.437 1.523-1.858 2.659-.42 1.137-.63 2.449-.63 3.938 0 1.511.21 2.818.63 3.92.432 1.091 1.052 1.938 1.858 2.54.819.591 1.824.886 3.017.886Zm30.358 6.341c-2.693 0-5.011-.545-6.954-1.636-1.932-1.102-3.421-2.659-4.466-4.67-1.046-2.023-1.568-4.415-1.568-7.177 0-2.693.522-5.056 1.568-7.09 1.045-2.035 2.517-3.62 4.415-4.756 1.909-1.137 4.147-1.705 6.716-1.705 1.727 0 3.335.279 4.823.835 1.5.546 2.807 1.37 3.921 2.472 1.125 1.102 2 2.489 2.625 4.159.625 1.659.937 3.602.937 5.83v1.994h-22.108v-4.5h15.273c0-1.045-.227-1.972-.682-2.778a4.874 4.874 0 0 0-1.892-1.892c-.795-.466-1.721-.699-2.778-.699-1.102 0-2.08.255-2.932.767-.841.5-1.5 1.176-1.977 2.028-.477.841-.722 1.779-.733 2.813v4.278c0 1.296.238 2.415.716 3.358a5.242 5.242 0 0 0 2.062 2.182c.887.511 1.938.767 3.154.767a6.88 6.88 0 0 0 2.216-.341 4.589 4.589 0 0 0 1.721-1.023 4.445 4.445 0 0 0 1.091-1.67l6.716.443c-.341 1.614-1.04 3.023-2.097 4.227-1.045 1.193-2.397 2.125-4.056 2.796-1.648.659-3.552.988-5.711.988ZM1068.51 316.131c-.14-1.375-.72-2.444-1.76-3.205-1.03-.761-2.43-1.142-4.21-1.142-1.2 0-2.22.171-3.05.511-.83.33-1.46.79-1.91 1.381a3.33 3.33 0 0 0-.64 2.012c-.03.624.1 1.17.39 1.636.29.466.7.869 1.21 1.21.51.33 1.1.619 1.77.869.67.239 1.39.444 2.15.614l3.14.75c1.52.341 2.92.795 4.19 1.364 1.27.568 2.37 1.267 3.31 2.096.93.83 1.65 1.807 2.16 2.932.52 1.125.79 2.415.8 3.869-.01 2.137-.56 3.989-1.63 5.557-1.07 1.557-2.62 2.767-4.64 3.631-2.01.852-4.44 1.278-7.28 1.278-2.82 0-5.27-.432-7.36-1.295-2.08-.864-3.71-2.142-4.88-3.835-1.16-1.705-1.77-3.813-1.82-6.324h7.14c.08 1.17.41 2.147 1.01 2.932.6.772 1.4 1.358 2.4 1.755 1.01.387 2.15.58 3.43.58 1.25 0 2.33-.182 3.25-.546.93-.363 1.65-.869 2.17-1.517.51-.647.76-1.392.76-2.233 0-.784-.23-1.443-.7-1.977-.45-.534-1.12-.989-2.01-1.364-.87-.375-1.95-.715-3.22-1.022l-3.8-.955c-2.94-.716-5.27-1.835-6.97-3.358-1.71-1.523-2.55-3.574-2.54-6.153-.01-2.114.55-3.96 1.69-5.54s2.72-2.812 4.72-3.699c2-.886 4.27-1.329 6.82-1.329 2.59 0 4.85.443 6.78 1.329 1.94.887 3.45 2.119 4.53 3.699 1.08 1.58 1.64 3.409 1.67 5.489h-7.07ZM1080.89 341v-26.182h7.26V341h-7.26Zm3.65-29.557c-1.08 0-2.01-.358-2.78-1.074-.76-.727-1.14-1.596-1.14-2.608 0-1 .38-1.858 1.14-2.573.77-.728 1.7-1.091 2.78-1.091 1.08 0 2 .363 2.76 1.091.77.715 1.16 1.573 1.16 2.573 0 1.012-.39 1.881-1.16 2.608-.76.716-1.68 1.074-2.76 1.074Zm16.69 14.421V341h-7.26v-26.182h6.92v4.62h.31c.57-1.523 1.55-2.728 2.91-3.614 1.36-.898 3.02-1.347 4.96-1.347 1.82 0 3.4.398 4.76 1.193 1.35.796 2.4 1.932 3.15 3.41.75 1.465 1.12 3.215 1.12 5.25V341h-7.26v-15.375c.01-1.602-.39-2.852-1.22-3.75-.83-.909-1.98-1.364-3.43-1.364-.98 0-1.84.211-2.59.631-.74.42-1.32 1.034-1.74 1.841-.41.795-.62 1.756-.63 2.881Zm34.39 25.5c-2.35 0-4.37-.324-6.05-.972-1.67-.636-3-1.506-3.99-2.608-.99-1.102-1.63-2.341-1.92-3.716l6.71-.903c.21.523.53 1.011.97 1.466.45.454 1.03.818 1.76 1.091.74.284 1.64.426 2.69.426 1.58 0 2.88-.387 3.91-1.159 1.03-.762 1.55-2.04 1.55-3.836v-4.789h-.31c-.32.727-.79 1.414-1.43 2.062-.64.648-1.46 1.176-2.46 1.585-1 .409-2.19.614-3.57.614-1.97 0-3.76-.455-5.37-1.364-1.61-.92-2.88-2.324-3.84-4.21-.94-1.898-1.41-4.295-1.41-7.193 0-2.966.48-5.443 1.44-7.432.97-1.989 2.25-3.477 3.86-4.466 1.61-.988 3.38-1.483 5.3-1.483 1.46 0 2.69.25 3.68.75.99.489 1.78 1.103 2.39 1.841.61.727 1.08 1.443 1.41 2.148h.27v-4.398h7.21v26.438c0 2.227-.54 4.091-1.63 5.591-1.09 1.5-2.6 2.625-4.54 3.375-1.92.761-4.13 1.142-6.63 1.142Zm.16-16.194c1.17 0 2.16-.289 2.96-.869.82-.591 1.45-1.432 1.88-2.523.44-1.102.66-2.42.66-3.954 0-1.534-.21-2.864-.65-3.989-.43-1.136-1.05-2.017-1.87-2.642-.82-.625-1.81-.937-2.98-.937-1.2 0-2.2.324-3.02.971-.82.637-1.44 1.523-1.86 2.659-.42 1.137-.63 2.449-.63 3.938 0 1.511.21 2.818.63 3.92.43 1.091 1.05 1.938 1.86 2.54.82.591 1.82.886 3.02.886Zm25.68-29.079V341h-7.26v-34.909h7.26Zm17.75 35.42c-2.69 0-5.01-.545-6.95-1.636-1.93-1.102-3.42-2.659-4.47-4.67-1.04-2.023-1.57-4.415-1.57-7.177 0-2.693.53-5.056 1.57-7.09 1.05-2.035 2.52-3.62 4.42-4.756 1.91-1.137 4.14-1.705 6.71-1.705 1.73 0 3.34.279 4.83.835 1.5.546 2.8 1.37 3.92 2.472 1.12 1.102 2 2.489 2.62 4.159.63 1.659.94 3.602.94 5.83v1.994h-22.11v-4.5h15.27c0-1.045-.22-1.972-.68-2.778a4.823 4.823 0 0 0-1.89-1.892c-.8-.466-1.72-.699-2.78-.699-1.1 0-2.08.255-2.93.767-.84.5-1.5 1.176-1.98 2.028a5.793 5.793 0 0 0-.73 2.813v4.278c0 1.296.24 2.415.72 3.358.48.943 1.17 1.67 2.06 2.182.88.511 1.94.767 3.15.767.81 0 1.55-.114 2.22-.341a4.609 4.609 0 0 0 1.72-1.023c.48-.454.84-1.011 1.09-1.67l6.72.443c-.34 1.614-1.04 3.023-2.1 4.227-1.05 1.193-2.4 2.125-4.06 2.796-1.65.659-3.55.988-5.71.988Zm28-.511v-34.909h13.78c2.64 0 4.9.506 6.76 1.517 1.87 1 3.29 2.392 4.26 4.176.99 1.773 1.49 3.818 1.49 6.136 0 2.319-.5 4.364-1.5 6.137-1 1.773-2.45 3.153-4.35 4.142-1.89.988-4.17 1.483-6.85 1.483h-8.78v-5.915h7.59c1.42 0 2.59-.244 3.51-.733.93-.5 1.62-1.187 2.08-2.062.46-.887.7-1.904.7-3.052 0-1.159-.24-2.17-.7-3.034-.46-.875-1.15-1.551-2.08-2.028-.93-.489-2.12-.733-3.55-.733h-4.98V341h-7.38Zm37.71.494c-1.67 0-3.16-.289-4.47-.869-1.3-.591-2.34-1.46-3.1-2.608-.75-1.159-1.12-2.602-1.12-4.329 0-1.455.26-2.677.8-3.665a6.456 6.456 0 0 1 2.18-2.387c.92-.602 1.96-1.056 3.13-1.363 1.19-.307 2.42-.523 3.72-.648 1.52-.159 2.75-.307 3.68-.443.93-.148 1.61-.364 2.03-.648.42-.284.63-.704.63-1.261v-.103c0-1.079-.34-1.914-1.02-2.505-.67-.591-1.63-.887-2.87-.887-1.3 0-2.34.29-3.11.87-.78.568-1.29 1.284-1.54 2.147l-6.71-.545c.34-1.591 1.01-2.966 2.01-4.125 1-1.17 2.29-2.068 3.87-2.693 1.59-.637 3.43-.955 5.52-.955 1.45 0 2.85.171 4.18.512 1.34.341 2.52.869 3.56 1.585a7.73 7.73 0 0 1 2.47 2.761c.6 1.114.9 2.449.9 4.006V341h-6.88v-3.631h-.21a7.29 7.29 0 0 1-1.69 2.165c-.7.614-1.55 1.097-2.54 1.449-.98.341-2.13.511-3.42.511Zm2.08-5.011c1.07 0 2.01-.21 2.83-.631.82-.432 1.46-1.011 1.92-1.738.47-.728.7-1.552.7-2.472v-2.778c-.22.147-.54.284-.94.409-.38.113-.82.221-1.31.324-.49.09-.97.176-1.46.255-.49.068-.94.131-1.33.188-.86.125-1.6.324-2.24.596-.63.273-1.13.642-1.48 1.108-.35.455-.53 1.023-.53 1.705 0 .989.36 1.744 1.08 2.267.72.511 1.64.767 2.76.767Zm30.09 14.881c-2.35 0-4.37-.324-6.05-.972-1.67-.636-3-1.506-3.99-2.608-.99-1.102-1.63-2.341-1.92-3.716l6.71-.903c.21.523.53 1.011.97 1.466.45.454 1.03.818 1.76 1.091.74.284 1.64.426 2.69.426 1.58 0 2.88-.387 3.91-1.159 1.03-.762 1.55-2.04 1.55-3.836v-4.789h-.31c-.32.727-.8 1.414-1.43 2.062-.64.648-1.46 1.176-2.46 1.585-1 .409-2.19.614-3.58.614-1.96 0-3.75-.455-5.37-1.364-1.6-.92-2.88-2.324-3.83-4.21-.94-1.898-1.42-4.295-1.42-7.193 0-2.966.49-5.443 1.45-7.432.97-1.989 2.25-3.477 3.86-4.466 1.61-.988 3.38-1.483 5.3-1.483 1.46 0 2.69.25 3.68.75.99.489 1.78 1.103 2.39 1.841.61.727 1.08 1.443 1.41 2.148h.27v-4.398h7.21v26.438c0 2.227-.54 4.091-1.63 5.591-1.09 1.5-2.61 2.625-4.54 3.375-1.92.761-4.13 1.142-6.63 1.142Zm.16-16.194c1.17 0 2.15-.289 2.96-.869.82-.591 1.44-1.432 1.88-2.523.44-1.102.66-2.42.66-3.954 0-1.534-.22-2.864-.65-3.989-.43-1.136-1.05-2.017-1.87-2.642-.82-.625-1.81-.937-2.98-.937-1.2 0-2.2.324-3.02.971-.82.637-1.44 1.523-1.86 2.659-.42 1.137-.63 2.449-.63 3.938 0 1.511.21 2.818.63 3.92.43 1.091 1.05 1.938 1.86 2.54.82.591 1.82.886 3.02.886Zm30.35 6.341c-2.69 0-5.01-.545-6.95-1.636-1.93-1.102-3.42-2.659-4.47-4.67-1.04-2.023-1.57-4.415-1.57-7.177 0-2.693.53-5.056 1.57-7.09 1.05-2.035 2.52-3.62 4.42-4.756 1.91-1.137 4.15-1.705 6.71-1.705 1.73 0 3.34.279 4.83.835 1.5.546 2.8 1.37 3.92 2.472 1.12 1.102 2 2.489 2.62 4.159.63 1.659.94 3.602.94 5.83v1.994h-22.11v-4.5h15.27c0-1.045-.22-1.972-.68-2.778a4.823 4.823 0 0 0-1.89-1.892c-.79-.466-1.72-.699-2.78-.699-1.1 0-2.08.255-2.93.767-.84.5-1.5 1.176-1.98 2.028a5.793 5.793 0 0 0-.73 2.813v4.278c0 1.296.24 2.415.72 3.358.49.943 1.17 1.67 2.06 2.182.89.511 1.94.767 3.15.767.81 0 1.55-.114 2.22-.341a4.609 4.609 0 0 0 1.72-1.023c.48-.454.84-1.011 1.09-1.67l6.72.443c-.34 1.614-1.04 3.023-2.1 4.227-1.05 1.193-2.4 2.125-4.06 2.796-1.64.659-3.55.988-5.71.988ZM1604.46 433.091V468h-7.38v-27.903h-.2l-8 5.011v-6.546l8.64-5.471h6.94Zm23.57-1.636-11.25 41.795h-6.25l11.25-41.795h6.25Zm2.9 30.409v-5.813l14.58-22.96h5.01v8.045h-2.97l-9.18 14.54v.273h20.71v5.915h-28.15Zm16.76 6.136v-7.909l.14-2.574v-24.426h6.92V468h-7.06Zm27.62 0v-34.909h13.77c2.65 0 4.9.506 6.77 1.517 1.86 1 3.28 2.392 4.26 4.176.99 1.773 1.48 3.818 1.48 6.136 0 2.319-.5 4.364-1.5 6.137-1 1.773-2.45 3.153-4.34 4.142-1.89.988-4.18 1.483-6.86 1.483h-8.78v-5.915h7.59c1.42 0 2.59-.244 3.51-.733.93-.5 1.63-1.187 2.08-2.062.47-.887.7-1.904.7-3.052 0-1.159-.23-2.17-.7-3.034-.45-.875-1.15-1.551-2.08-2.028-.93-.489-2.11-.733-3.54-.733h-4.98V468h-7.38Zm37.7.494c-1.67 0-3.16-.289-4.46-.869-1.31-.591-2.34-1.46-3.11-2.608-.75-1.159-1.12-2.602-1.12-4.329 0-1.455.27-2.677.8-3.665a6.456 6.456 0 0 1 2.18-2.387c.92-.602 1.97-1.056 3.14-1.363 1.18-.307 2.42-.523 3.71-.648 1.53-.159 2.75-.307 3.69-.443.93-.148 1.6-.364 2.02-.648.42-.284.64-.704.64-1.261v-.103c0-1.079-.35-1.914-1.03-2.505-.67-.591-1.62-.887-2.86-.887-1.31 0-2.35.29-3.12.87-.77.568-1.28 1.284-1.53 2.147l-6.72-.545c.34-1.591 1.01-2.966 2.01-4.125 1-1.17 2.29-2.068 3.87-2.693 1.59-.637 3.43-.955 5.52-.955 1.46 0 2.85.171 4.18.512 1.34.341 2.53.869 3.56 1.585a7.637 7.637 0 0 1 2.47 2.761c.61 1.114.91 2.449.91 4.006V468h-6.89v-3.631h-.2c-.42.819-.99 1.54-1.69 2.165-.71.614-1.55 1.097-2.54 1.449-.99.341-2.13.511-3.43.511Zm2.08-5.011c1.07 0 2.01-.21 2.83-.631.82-.432 1.46-1.011 1.93-1.738.46-.728.7-1.552.7-2.472v-2.778c-.23.147-.54.284-.94.409-.39.113-.83.221-1.31.324-.49.09-.98.176-1.47.255-.49.068-.93.131-1.33.188-.85.125-1.6.324-2.23.596-.64.273-1.13.642-1.49 1.108-.35.455-.52 1.023-.52 1.705 0 .989.35 1.744 1.07 2.267.73.511 1.65.767 2.76.767Zm30.1 14.881c-2.36 0-4.37-.324-6.06-.972-1.67-.636-3-1.506-3.98-2.608-.99-1.102-1.64-2.341-1.93-3.716l6.72-.903c.2.523.52 1.011.97 1.466.44.454 1.03.818 1.75 1.091.74.284 1.64.426 2.7.426 1.58 0 2.88-.387 3.9-1.159 1.03-.762 1.55-2.04 1.55-3.836v-4.789h-.31c-.31.727-.79 1.414-1.43 2.062-.63.648-1.45 1.176-2.45 1.585-1 .409-2.2.614-3.58.614-1.97 0-3.76-.455-5.37-1.364-1.6-.92-2.88-2.324-3.84-4.21-.94-1.898-1.41-4.295-1.41-7.193 0-2.966.48-5.443 1.45-7.432.96-1.989 2.25-3.477 3.85-4.466 1.61-.988 3.38-1.483 5.3-1.483 1.47 0 2.69.25 3.68.75.99.489 1.79 1.103 2.39 1.841.61.727 1.08 1.443 1.41 2.148h.28v-4.398h7.21v26.438c0 2.227-.55 4.091-1.64 5.591-1.09 1.5-2.6 2.625-4.53 3.375-1.92.761-4.13 1.142-6.63 1.142Zm.15-16.194c1.17 0 2.16-.289 2.96-.869.82-.591 1.45-1.432 1.88-2.523.44-1.102.66-2.42.66-3.954 0-1.534-.21-2.864-.64-3.989-.44-1.136-1.06-2.017-1.88-2.642-.82-.625-1.81-.937-2.98-.937-1.19 0-2.2.324-3.02.971-.82.637-1.44 1.523-1.86 2.659-.42 1.137-.63 2.449-.63 3.938 0 1.511.21 2.818.63 3.92.44 1.091 1.05 1.938 1.86 2.54.82.591 1.83.886 3.02.886Zm30.36 6.341c-2.7 0-5.01-.545-6.96-1.636-1.93-1.102-3.42-2.659-4.46-4.67-1.05-2.023-1.57-4.415-1.57-7.177 0-2.693.52-5.056 1.57-7.09 1.04-2.035 2.51-3.62 4.41-4.756 1.91-1.137 4.15-1.705 6.72-1.705 1.72 0 3.33.279 4.82.835 1.5.546 2.81 1.37 3.92 2.472 1.13 1.102 2 2.489 2.63 4.159.62 1.659.93 3.602.93 5.83v1.994h-22.1v-4.5h15.27c0-1.045-.23-1.972-.68-2.778a4.914 4.914 0 0 0-1.9-1.892c-.79-.466-1.72-.699-2.77-.699-1.11 0-2.08.255-2.94.767-.84.5-1.5 1.176-1.97 2.028-.48.841-.72 1.779-.74 2.813v4.278c0 1.296.24 2.415.72 3.358.49.943 1.18 1.67 2.06 2.182.89.511 1.94.767 3.16.767.8 0 1.54-.114 2.21-.341a4.53 4.53 0 0 0 1.72-1.023c.48-.454.84-1.011 1.09-1.67l6.72.443c-.34 1.614-1.04 3.023-2.1 4.227-1.04 1.193-2.39 2.125-4.05 2.796-1.65.659-3.55.988-5.71.988Z"
    />
  </svg>